<?xml version="1.0" encoding="UTF-8" standalone="no"?>
<svg
   xmlns:dc="http://purl.org/dc/elements/1.1/"
   xmlns:cc="http://creativecommons.org/ns#"
   xmlns:rdf="http://www.w3.org/1999/02/22-rdf-syntax-ns#"
   xmlns:svg="http://www.w3.org/2000/svg"
   xmlns="http://www.w3.org/2000/svg"
   xmlns:xlink="http://www.w3.org/1999/xlink"
   xmlns:sodipodi="http://sodipodi.sourceforge.net/DTD/sodipodi-0.dtd"
   xmlns:inkscape="http://www.inkscape.org/namespaces/inkscape"
   height="126.22875"
   width="815.85571"
   xml:space="preserve"
   preserveAspectRatio="xMidYMid meet"
   viewBox="0 0 815.85571 126.22875"
   version="1.1"
   id="svg2"
   inkscape:version="0.91 r13725"
   sodipodi:docname="404.svg"
   inkscape:export-filename="/var/www/citybibleforum/sites/all/themes/cbootf/404.png"
   inkscape:export-xdpi="89.836899"
   inkscape:export-ydpi="89.836899"><sodipodi:namedview
     pagecolor="#ffffff"
     bordercolor="#666666"
     borderopacity="1"
     objecttolerance="10"
     gridtolerance="10"
     guidetolerance="10"
     inkscape:pageopacity="0"
     inkscape:pageshadow="2"
     inkscape:window-width="1321"
     inkscape:window-height="744"
     id="namedview3371"
     showgrid="false"
     fit-margin-top="0"
     fit-margin-left="0"
     fit-margin-right="0"
     fit-margin-bottom="0"
     inkscape:zoom="1.4142136"
     inkscape:cx="644.55721"
     inkscape:cy="127.7075"
     inkscape:window-x="45"
     inkscape:window-y="24"
     inkscape:window-maximized="1"
     inkscape:current-layer="svg2" /><metadata
     id="metadata8"><rdf:RDF><cc:Work
         rdf:about=""><dc:format>image/svg+xml</dc:format><dc:type
           rdf:resource="http://purl.org/dc/dcmitype/StillImage" /><dc:title></dc:title></cc:Work></rdf:RDF></metadata><defs
     id="defs6"><linearGradient
       id="linearGradient3812"><stop
         id="stop3814"
         offset="0"
         style="stop-color:#499ddc;stop-opacity:1;" /><stop
         id="stop3816"
         offset="1"
         style="stop-color:#1c3e64;stop-opacity:1;" /></linearGradient><linearGradient
       id="linearGradient3804"><stop
         id="stop3806"
         offset="0"
         style="stop-color:#1c3e64;stop-opacity:1;" /><stop
         id="stop3808"
         offset="1"
         style="stop-color:#499ddc;stop-opacity:1;" /></linearGradient><clipPath
       id="clipPath18"
       clipPathUnits="userSpaceOnUse"><path
         id="path20"
         d="M 1739.78,908.18 C 1610.7,838.789 1432.71,795.891 1236.16,795.891 c -394.203,0 -713.762,172.504 -713.762,385.309 l 0,-317.669 c 0,-212.801 319.559,-385.301 713.762,-385.301 196.55,0 374.54,42.899 503.62,112.29 l 0,317.66 z"
         inkscape:connector-curvature="0" /></clipPath><linearGradient
       id="linearGradient22"
       spreadMethod="pad"
       gradientTransform="matrix(121.738,0,0,-121.738,52.2399,47.823)"
       gradientUnits="userSpaceOnUse"
       y2="0"
       x2="1"
       y1="0"
       x1="0"><stop
         id="stop24"
         offset="0"
         style="stop-opacity:1;stop-color:#1b3e6e" /><stop
         id="stop26"
         offset="1"
         style="stop-opacity:1;stop-color:#499ddc" /></linearGradient><clipPath
       id="clipPath34"
       clipPathUnits="userSpaceOnUse"><path
         id="path36"
         d="m 1438.19,971.805 c -53.44,27.754 -122.66,44.585 -198.46,44.585 -117.63,0 -219.7,-40.367 -270.937,-99.538 -11.23,16.378 -17.367,34.07 -17.367,52.531 0,84.187 127.474,152.437 284.734,152.437 78.44,0 150.21,-17.46 201.69,-44.94 l 100.68,54.78 c -77.35,41.97 -184.41,68.3 -302.37,68.3 -202.74,0 -372.406,-76.67 -416.484,-179.56 -7.285,17.02 -11.258,34.73 -11.258,52.96 0,128.38 191.09,232.45 426.812,232.45 118.23,0 225.17,-26.2 302.44,-68.5 l 101.72,55.03 c -114.87,59.38 -249.92,89.87 -403.6,89.87 -336.985,0 -527.97,-143.85 -561.185,-251.19 -0.234,-0.75 -0.195,-0.57 -0.421,-1.34 -5.215,16.76 -7.973,33.96 -7.973,51.52 0,170 254.73,306.86 568.959,306.86 158.12,0 301.16,-33.95 404.27,-90.29 l 100.8,54.94 -302.05,-480.905 z"
         inkscape:connector-curvature="0" /></clipPath><linearGradient
       id="linearGradient38"
       spreadMethod="pad"
       gradientTransform="matrix(-106.732,0,0,106.732,174.109,121.925)"
       gradientUnits="userSpaceOnUse"
       y2="0"
       x2="1"
       y1="0"
       x1="0"><stop
         id="stop40"
         offset="0"
         style="stop-opacity:1;stop-color:#1b3e6e" /><stop
         id="stop42"
         offset="1"
         style="stop-opacity:1;stop-color:#499ddc" /></linearGradient><linearGradient
       gradientUnits="userSpaceOnUse"
       y2="829.71503"
       x2="1739.78"
       y1="829.71503"
       x1="522.39801"
       id="linearGradient3810"
       xlink:href="#linearGradient3804" /><linearGradient
       gradientUnits="userSpaceOnUse"
       y2="1202.4561"
       x2="1740.24"
       y1="1202.4561"
       x1="666.211"
       id="linearGradient3818"
       xlink:href="#linearGradient3812" /><linearGradient
       y2="829.71503"
       x2="1739.78"
       y1="829.71503"
       x1="522.39801"
       gradientUnits="userSpaceOnUse"
       id="linearGradient4437"
       xlink:href="#linearGradient3804" /><linearGradient
       y2="829.71503"
       x2="1739.78"
       y1="829.71503"
       x1="522.39801"
       gradientUnits="userSpaceOnUse"
       id="linearGradient4439"
       xlink:href="#linearGradient3804" /><linearGradient
       y2="1202.4561"
       x2="1740.24"
       y1="1202.4561"
       x1="666.211"
       gradientUnits="userSpaceOnUse"
       id="linearGradient4441"
       xlink:href="#linearGradient3812"
       gradientTransform="matrix(0.125,0,0,-0.125,-65.29975,186.0075)" /><linearGradient
       y2="1202.4561"
       x2="1740.24"
       y1="1202.4561"
       x1="666.211"
       gradientUnits="userSpaceOnUse"
       id="linearGradient4443"
       xlink:href="#linearGradient3812" /></defs><g
     id="g14"
     transform="matrix(0.125,0,0,-0.125,-65.29975,186.0075)"
     style="fill:url(#linearGradient3810);fill-opacity:1"><g
       clip-path="url(#clipPath18)"
       id="g16"
       style="fill:url(#linearGradient4439);fill-opacity:1"><path
         inkscape:connector-curvature="0"
         id="path28"
         style="fill:url(#linearGradient4437);fill-opacity:1;fill-rule:nonzero;stroke:none"
         d="M 1739.78,908.18 C 1610.7,838.789 1432.71,795.891 1236.16,795.891 c -394.203,0 -713.762,172.504 -713.762,385.309 l 0,-317.669 c 0,-212.801 319.559,-385.301 713.762,-385.301 196.55,0 374.54,42.899 503.62,112.29 l 0,317.66" /></g></g><path
     inkscape:connector-curvature="0"
     id="path44"
     style="fill:url(#linearGradient4441);fill-opacity:1;fill-rule:nonzero;stroke:none"
     d="M 114.474,64.531875 C 107.794,61.062625 99.1415,58.95875 89.6665,58.95875 74.96275,58.95875 62.204,64.004625 55.799375,71.401 54.395625,69.35375 53.6285,67.14225 53.6285,64.834625 53.6285,54.31125 69.56275,45.78 89.22025,45.78 c 9.805,0 18.77625,2.1825 25.21125,5.6175 l 12.585,-6.8475 c -9.66875,-5.24625 -23.05125,-8.5375 -37.79625,-8.5375 -25.3425,0 -46.55075,9.58375 -52.0605,22.445 -0.910625,-2.1275 -1.40725,-4.34125 -1.40725,-6.62 0,-16.0475 23.88625,-29.05625 53.3515,-29.05625 14.77875,0 28.14625,3.275 37.805,8.5625 L 139.624,24.465 c -14.35875,-7.4225 -31.24,-11.23375 -50.45,-11.23375 -42.123125,0 -65.99625,17.98125 -70.148125,31.39875 -0.02925,0.09375 -0.02437,0.07125 -0.05262,0.1675 -0.651875,-2.095 -0.996625,-4.245 -0.996625,-6.44 C 17.976625,17.1075 49.817875,0 89.0965,0 c 19.765,0 37.645,4.24375 50.53375,11.28625 l 12.6,-6.8675 -37.75625,60.113125" /><text
     xml:space="preserve"
     style="font-style:normal;font-variant:normal;font-weight:normal;font-stretch:normal;font-size:40px;line-height:125%;font-family:'Open Sans';-inkscape-font-specification:'Open Sans';letter-spacing:0px;word-spacing:0px;fill:#000000;fill-opacity:1;stroke:none;stroke-width:1px;stroke-linecap:butt;stroke-linejoin:miter;stroke-opacity:1"
     x="170.08545"
     y="61.971916"
     id="text3382"
     sodipodi:linespacing="125%"><tspan
       sodipodi:role="line"
       x="170.08545"
       y="61.971916"
       id="tspan3388"
       style="font-style:normal;font-variant:normal;font-weight:bold;font-stretch:normal;font-size:77.5px;font-family:'Open Sans';-inkscape-font-specification:'Open Sans Bold'"><tspan
         style="font-size:77.5px;fill:#1c3e64;fill-opacity:1"
         id="tspan4194">CAN'T</tspan><tspan
         style="font-size:77.5px;fill:#499ddc;fill-opacity:1"
         id="tspan4212"> BE</tspan><tspan
         style="font-size:77.5px;fill:#1c3e64;fill-opacity:1"
         id="tspan4210"> FOUND</tspan></tspan></text>
<text
     xml:space="preserve"
     style="font-style:normal;font-weight:normal;font-size:40px;line-height:125%;font-family:sans-serif;letter-spacing:0px;word-spacing:0px;fill:#000000;fill-opacity:1;stroke:none;stroke-width:1px;stroke-linecap:butt;stroke-linejoin:miter;stroke-opacity:1"
     x="463.07648"
     y="104.50398"
     id="text4228"
     sodipodi:linespacing="125%"><tspan
       sodipodi:role="line"
       id="tspan4230"
       x="463.07648"
       y="104.50398"
       style="font-style:italic;font-variant:normal;font-weight:normal;font-stretch:normal;font-size:35px;font-family:sans-serif;-inkscape-font-specification:'sans-serif Italic';letter-spacing:-1px;fill:#1c3e64;fill-opacity:1"
       dx="0">Ask another question</tspan></text>
</svg>