<?xml version="1.0" encoding="UTF-8" standalone="no"?>
<svg
   xmlns:dc="http://purl.org/dc/elements/1.1/"
   xmlns:cc="http://creativecommons.org/ns#"
   xmlns:rdf="http://www.w3.org/1999/02/22-rdf-syntax-ns#"
   xmlns:svg="http://www.w3.org/2000/svg"
   xmlns="http://www.w3.org/2000/svg"
   viewBox="0 0 300 206.7289"
   height="206.7289"
   width="300"
   xml:space="preserve"
   version="1.1"
   id="svg2"><metadata
     id="metadata8"><rdf:RDF><cc:Work
         rdf:about=""><dc:format>image/svg+xml</dc:format><dc:type
           rdf:resource="http://purl.org/dc/dcmitype/StillImage" /><dc:title></dc:title></cc:Work></rdf:RDF></metadata><defs
     id="defs6"><clipPath
       id="clipPath18"
       clipPathUnits="userSpaceOnUse"><path
         id="path20"
         d="m 5411.17,3566.55 c -300.68,-173.81 -715.29,-281.26 -1173.16,-281.26 -918.26,0 -1662.64,432.09 -1662.64,965.11 l 0,-795.68 c 0,-533.02 744.38,-965.1 1662.64,-965.1 457.87,0 872.48,107.44 1173.16,281.25 l 0,795.68 z" /></clipPath><linearGradient
       id="linearGradient22"
       spreadMethod="pad"
       gradientTransform="matrix(2835.81,0,0,-2835.81,2575.37,2489.62)"
       gradientUnits="userSpaceOnUse"
       y2="0"
       x2="1"
       y1="0"
       x1="0"><stop
         id="stop24"
         offset="0"
         style="stop-opacity:1;stop-color:#1b3e6e" /><stop
         id="stop26"
         offset="1"
         style="stop-opacity:1;stop-color:#499ddc" /></linearGradient><clipPath
       id="clipPath34"
       clipPathUnits="userSpaceOnUse"><path
         id="path36"
         d="m 4708.63,3725.92 c -124.47,69.51 -285.73,111.67 -462.29,111.67 -274.01,0 -511.77,-101.11 -631.13,-249.31 -26.16,41.02 -40.45,85.34 -40.45,131.58 0,210.88 296.94,381.81 663.25,381.81 182.73,0 349.92,-43.74 469.83,-112.56 l 234.54,137.21 c -180.18,105.13 -429.59,171.08 -704.37,171.08 -472.25,0 -867.48,-192.05 -970.16,-449.75 -16.97,42.63 -26.23,86.99 -26.23,132.64 0,321.58 445.14,582.25 994.24,582.25 275.4,0 524.51,-65.63 704.5,-171.59 l 236.95,137.85 c -267.57,148.74 -582.17,225.1 -940.14,225.1 -784.99,0 -1229.88,-360.32 -1307.25,-629.17 -0.55,-1.89 -0.45,-1.45 -0.98,-3.35 -12.15,41.96 -18.58,85.05 -18.58,129.02 0,425.83 593.38,768.64 1325.36,768.64 368.33,0 701.52,-85.05 941.7,-226.16 l 234.82,137.6 -703.61,-1204.56 z" /></clipPath><linearGradient
       id="linearGradient38"
       spreadMethod="pad"
       gradientTransform="matrix(-2486.24,0,0,2486.24,5414.22,4345.73)"
       gradientUnits="userSpaceOnUse"
       y2="0"
       x2="1"
       y1="0"
       x1="0"><stop
         id="stop40"
         offset="0"
         style="stop-opacity:1;stop-color:#1b3e6e" /><stop
         id="stop42"
         offset="1"
         style="stop-opacity:1;stop-color:#499ddc" /></linearGradient></defs><g
     transform="matrix(1.25,0,0,-1.25,-349.59625,473.40745)"
     id="g10"><g
       transform="matrix(0.04016696,0,0,0.04016696,239.1389,177.12638)"
       id="g12"><g
         id="g14"><g
           clip-path="url(#clipPath18)"
           id="g16"><path
             id="path28"
             style="fill:url(#linearGradient22);fill-opacity:1;fill-rule:nonzero;stroke:none"
             d="m 5411.17,3566.55 c -300.68,-173.81 -715.29,-281.26 -1173.16,-281.26 -918.26,0 -1662.64,432.09 -1662.64,965.11 l 0,-795.68 c 0,-533.02 744.38,-965.1 1662.64,-965.1 457.87,0 872.48,107.44 1173.16,281.25 l 0,795.68" /></g></g><g
         id="g30"><g
           clip-path="url(#clipPath34)"
           id="g32"><path
             id="path44"
             style="fill:url(#linearGradient38);fill-opacity:1;fill-rule:nonzero;stroke:none"
             d="m 4708.63,3725.92 c -124.47,69.51 -285.73,111.67 -462.29,111.67 -274.01,0 -511.77,-101.11 -631.13,-249.31 -26.16,41.02 -40.45,85.34 -40.45,131.58 0,210.88 296.94,381.81 663.25,381.81 182.73,0 349.92,-43.74 469.83,-112.56 l 234.54,137.21 c -180.18,105.13 -429.59,171.08 -704.37,171.08 -472.25,0 -867.48,-192.05 -970.16,-449.75 -16.97,42.63 -26.23,86.99 -26.23,132.64 0,321.58 445.14,582.25 994.24,582.25 275.4,0 524.51,-65.63 704.5,-171.59 l 236.95,137.85 c -267.57,148.74 -582.17,225.1 -940.14,225.1 -784.99,0 -1229.88,-360.32 -1307.25,-629.17 -0.55,-1.89 -0.45,-1.45 -0.98,-3.35 -12.15,41.96 -18.58,85.05 -18.58,129.02 0,425.83 593.38,768.64 1325.36,768.64 368.33,0 701.52,-85.05 941.7,-226.16 l 234.82,137.6 -703.61,-1204.56" /></g></g><path
         id="path46"
         style="fill:#1c3e64;fill-opacity:1;fill-rule:nonzero;stroke:none"
         d="m 1297.95,2012.77 c 18.82,-6.32 37.52,-13.71 56.11,-22.2 l 34.01,82.27 c -48.75,22.42 -97.26,33.63 -145.55,33.63 -47.38,0 -88.7,-9.95 -123.95,-29.87 -35.26,-19.92 -62.29,-48.54 -81.11,-85.87 -18.82,-37.33 -28.22,-80.81 -28.22,-130.44 0,-78.8 19.15,-139.25 57.47,-181.37 38.31,-42.12 93.63,-63.18 165.95,-63.18 50.33,0 95.9,8.17 136.71,24.49 l 0,84.89 c -49.65,-16.76 -91.94,-25.14 -126.85,-25.14 -83.2,0 -124.8,53.22 -124.8,159.66 0,51.15 10.88,91.04 32.65,119.66 21.76,28.62 52.48,42.94 92.15,42.94 18.14,0 36.61,-3.16 55.43,-9.47 z m 254.95,-390.5 0,477.35 -105.42,0 0,-477.35 105.42,0 z m 294.44,393.11 135.01,0 0,84.24 -375.43,0 0,-84.24 135,0 0,-393.11 105.42,0 0,393.11 z m 273.59,84.24 -114.26,0 164.93,-294.83 0,-182.52 104.74,0 0,185.78 164.93,291.57 -113.58,0 -103.72,-196.56 -103.04,196.56 z m 2627.97,-288.63 168.67,0 0,82.61 -168.67,0 0,123.09 181.25,0 0,82.93 -284.97,0 0,-477.35 103.72,0 0,188.72 z m 640.45,232.8 c -40.47,42.22 -98.9,63.34 -175.3,63.34 -76.41,0 -135.07,-20.96 -175.99,-62.85 -40.92,-41.91 -61.38,-102.58 -61.38,-182.03 0,-79.45 20.41,-140.39 61.21,-182.84 40.81,-42.44 99.3,-63.67 175.48,-63.67 76.17,0 134.66,21.23 175.47,63.67 40.81,42.45 61.21,103.18 61.21,182.19 0,79.23 -20.23,139.95 -60.7,182.19 z m -270.18,-61.55 c 21.31,27.1 52.93,40.65 94.88,40.65 83.65,0 125.48,-53.77 125.48,-161.29 0,-107.31 -42.06,-160.97 -126.16,-160.97 -41.95,0 -73.46,13.5 -94.54,40.49 -21.08,26.99 -31.63,67.15 -31.63,120.48 0,53.33 10.66,93.54 31.97,120.64 z m 513.5,34.45 31.97,0 c 34.01,0 59.11,-4.79 75.32,-14.37 16.21,-9.58 24.32,-25.69 24.32,-48.32 0,-22.86 -7.94,-39.62 -23.81,-50.28 -15.87,-10.67 -40.46,-16 -73.79,-16 l -34.01,0 0,128.97 z m 56.11,-211.25 118.69,-183.17 116.98,0 c -22.67,31.35 -71.41,100.67 -146.23,207.98 29.47,12.41 52.25,29.55 68.35,51.43 16.1,21.87 24.15,46.85 24.15,74.93 0,48.1 -16.21,83.96 -48.63,107.58 -32.42,23.62 -82.41,35.43 -149.97,35.43 l -144.87,0 0,-477.35 105.42,0 0,183.17 56.11,0 z m 563.57,294.18 0,-291.57 c 0,-37 -7.77,-64.15 -23.29,-81.46 -15.53,-17.3 -40.53,-25.96 -74.99,-25.96 -35.59,0 -61.1,8.6 -76.51,25.8 -15.42,17.19 -23.13,44.18 -23.13,80.97 l 0,292.22 -105.08,0 0,-307.57 c 0,-54.63 17.69,-97.68 53.05,-129.13 35.37,-31.45 85.02,-47.18 148.95,-47.18 42.39,0 79.12,7.08 110.18,21.23 31.06,14.14 54.81,34.49 71.25,61.05 16.43,26.56 24.65,57.47 24.65,92.73 l 0,308.87 -105.08,0 z m 507.51,-477.35 128.2,373.85 3.06,0 c -2.72,-60.08 -4.25,-97.09 -4.59,-111.01 -0.34,-13.94 -0.51,-26.24 -0.51,-36.9 l 0,-225.94 98.28,0 0,477.35 -143.51,0 -124.8,-365.03 -2.04,0 -117.66,365.03 -143.51,0 0,-477.35 94.2,0 0,222.02 c 0,25.47 -2.16,76.29 -6.46,152.48 l 3.06,0 119.7,-374.5 96.58,0" /><path
         id="path48"
         style="fill:#499ddc;fill-opacity:1;fill-rule:nonzero;stroke:none"
         d="m 2649.93,1622.27 186.02,0 c 56.22,0 100.71,12.19 133.47,36.57 32.76,24.38 49.14,58.33 49.14,101.87 0,30.69 -6.97,55.29 -20.91,73.79 -13.94,18.5 -36.67,31.12 -68.18,37.87 l 0,3.27 c 23.12,3.7 41.65,14.69 55.6,32.97 13.94,18.29 20.91,41.68 20.91,70.2 0,42.01 -15.93,72.65 -47.78,91.91 -31.85,19.27 -83.03,28.9 -153.54,28.9 l -154.73,0 0,-477.35 z m 105.42,394.42 55.43,0 c 30.15,0 52.2,-3.98 66.15,-11.92 13.94,-7.95 20.91,-21.06 20.91,-39.34 0,-19.59 -6.41,-33.63 -19.21,-42.12 -12.81,-8.49 -33.5,-12.74 -62.06,-12.74 l -61.22,0 0,106.12 z m 65.3,-186.44 c 58.94,0 88.41,-19.8 88.41,-59.42 0,-21.99 -6.92,-38.31 -20.74,-48.97 -13.83,-10.67 -35.26,-16 -64.27,-16 l -68.7,0 0,124.39 65.3,0 z m 379.86,-207.98 0,477.35 -105.42,0 0,-477.35 105.42,0 z m 98.26,0 186.01,0 c 56.23,0 100.72,12.19 133.48,36.57 32.76,24.38 49.14,58.33 49.14,101.87 0,30.69 -6.97,55.29 -20.92,73.79 -13.94,18.5 -36.67,31.12 -68.18,37.87 l 0,3.27 c 23.13,3.7 41.66,14.69 55.6,32.97 13.95,18.29 20.92,41.68 20.92,70.2 0,42.01 -15.93,72.65 -47.78,91.91 -31.86,19.27 -83.04,28.9 -153.54,28.9 l -154.73,0 0,-477.35 z m 105.42,394.42 55.43,0 c 30.15,0 52.2,-3.98 66.14,-11.92 13.94,-7.95 20.92,-21.06 20.92,-39.34 0,-19.59 -6.41,-33.63 -19.22,-42.12 -12.81,-8.49 -33.49,-12.74 -62.06,-12.74 l -61.21,0 0,106.12 z m 65.29,-186.44 c 58.94,0 88.42,-19.8 88.42,-59.42 0,-21.99 -6.92,-38.31 -20.75,-48.97 -13.83,-10.67 -35.25,-16 -64.27,-16 l -68.69,0 0,124.39 65.29,0 z m 580.69,-207.98 0,83.59 -201.66,0 0,393.76 -105.42,0 0,-477.35 307.08,0 z m 345.2,83.59 -180.92,0 0,123.09 168.33,0 0,82.93 -168.33,0 0,104.81 180.92,0 0,82.93 -286.34,0 0,-477.35 286.34,0 0,83.59" /><path
         id="path50"
         style="fill:#1c3e64;fill-opacity:1;fill-rule:nonzero;stroke:none"
         d="m 2104.18,1002.17 36.86,0 -39.89,298.7 -37.72,0 -173.22,-298.7 40.98,0 53.11,95.01 107.53,0 12.35,-95.01 z m -101.67,126.88 c 29.77,52.71 47.8,84.99 54.09,96.84 6.29,11.85 12.1,23.77 17.45,35.76 0.72,-23.3 2.82,-47.13 6.29,-71.51 l 7.59,-61.09 -85.42,0 z m 311.78,-40.56 c -3.33,6.74 -8.35,13.04 -15.07,18.9 -6.72,5.86 -17.81,12.87 -33.28,21.04 -16.04,8.59 -26.63,15.6 -31.75,21.05 -5.14,5.44 -7.7,11.98 -7.7,19.61 0,9.4 3.83,17.06 11.49,22.99 7.66,5.92 18.21,8.88 31.65,8.88 17.2,0 33.09,-2.93 47.69,-8.78 l 12.14,-5.11 11.71,27.99 c -22.98,10.08 -46.83,15.12 -71.54,15.12 -23.85,0 -43.07,-5.75 -57.67,-17.26 -14.59,-11.51 -21.89,-26.67 -21.89,-45.46 0,-13.08 3.9,-24.39 11.71,-33.92 7.8,-9.53 21.1,-19.27 39.88,-29.21 16.77,-9.27 27.68,-16.55 32.74,-21.87 5.06,-5.31 7.59,-11.85 7.59,-19.61 0,-10.62 -4.63,-19.34 -13.88,-26.15 -9.25,-6.81 -22.98,-10.22 -41.19,-10.22 -9.97,0 -20.81,1.57 -32.52,4.7 -11.7,3.13 -22.62,7.56 -32.73,13.28 l 0,-32.28 c 19.65,-9.4 41.69,-14.098 66.12,-14.098 29.05,0 51.56,5.958 67.53,17.878 15.97,11.92 23.95,28.5 23.95,49.75 0,8.44 -1.66,16.04 -4.98,22.78 z m 87.71,27.89 c 6.5,17.57 13.87,44.47 22.11,80.7 8.24,36.23 17.56,77.23 27.96,123 l -36.85,0 -71.54,-317.91 36.85,0 17.78,81.93 32.95,25.13 50.95,-107.06 40.54,0 -63.96,128.51 101.68,95.42 -43.58,0 -114.03,-109.72 -0.86,0 z m 307.1,-84.18 c -4.2,4.09 -6.29,9.95 -6.29,17.58 0,6.12 1.3,15.11 3.9,26.96 l 27.97,123.41 59.18,0 5.64,25.95 -59.4,0 11.92,51.48 -21.24,0 -27.1,-46.58 -40.11,-15.94 -3.03,-14.91 37.29,0 -27.54,-123 c -2.6,-11.44 -3.9,-21.65 -3.9,-30.64 0,-16.08 4.8,-28.17 14.42,-36.27 9.61,-8.1 23.44,-12.158 41.51,-12.158 4.34,0 10.12,0.688 17.34,2.048 7.23,1.36 13.3,2.99 18.22,4.9 l 0,26.36 c -12.87,-3.55 -23.28,-5.31 -31.22,-5.31 -7.52,0 -13.37,2.04 -17.56,6.12 z m 258.61,-30.03 c 15.32,65.24 25.8,111.01 31.44,137.3 3.32,14.16 4.98,25.47 4.98,33.91 0,17.98 -5.17,31.88 -15.5,41.68 -10.33,9.81 -24.97,14.71 -43.9,14.71 -14.45,0 -28.29,-3.61 -41.51,-10.83 -13.23,-7.22 -26.63,-19.2 -40.22,-35.95 l -2.38,0 c 3.9,13.89 7.33,26.76 10.3,38.61 2.96,11.85 5.7,23.19 8.23,34.02 2.53,10.83 4.99,21.48 7.37,31.97 2.39,10.49 4.88,21.32 7.48,32.49 l -36.42,0 -71.54,-317.91 36.42,0 21.9,96.64 c 4.77,21.66 11.81,40.15 21.14,55.47 9.32,15.32 20.08,27 32.3,35.04 12.21,8.03 24.75,12.05 37.61,12.05 21.25,0 31.87,-10.08 31.87,-30.23 0,-5.59 -1.3,-14.79 -3.9,-27.59 l -32.09,-141.38 36.42,0 z m 187.82,-0.51 c 10.41,2.38 22.4,6.57 35.99,12.56 l 0,29.83 c -14.31,-6.53 -26.27,-11.03 -35.88,-13.48 -9.61,-2.45 -18.97,-3.68 -28.08,-3.68 -18.64,0 -32.41,5.01 -41.29,15.02 -8.89,10.01 -13.34,23.94 -13.34,41.78 l 0.87,16.35 7.15,0 c 44.66,0 78.99,6.97 102.98,20.94 23.99,13.96 35.99,33.2 35.99,57.72 0,16.2 -5.57,28.83 -16.7,37.89 -11.13,9.06 -27.75,13.59 -49.86,13.59 -21.39,0 -40.97,-6.54 -58.75,-19.61 -17.77,-13.08 -32.05,-31.36 -42.81,-54.86 -10.77,-23.5 -16.15,-48.05 -16.15,-73.65 0,-26.29 7.58,-46.86 22.76,-61.71 15.17,-14.84 36.06,-22.268 62.65,-22.268 12.57,0 24.06,1.199 34.47,3.578 z m 20.49,192.15 c 5.27,-4.77 7.91,-10.76 7.91,-17.98 0,-15.39 -8.78,-27.14 -26.34,-35.24 -17.56,-8.1 -42.82,-12.16 -75.77,-12.16 l -2.6,0 c 6.94,22.75 16.94,40.53 30.03,53.33 13.07,12.8 27.06,19.2 41.94,19.2 11.28,0 19.55,-2.38 24.83,-7.15 z m 328.56,-175.4 c 17.7,13.56 31.51,32.42 41.41,56.6 9.9,24.17 14.85,50.49 14.85,78.96 0,23.57 -5.71,42.09 -17.13,55.58 -11.42,13.48 -27.31,20.22 -47.69,20.22 -13.88,0 -27.35,-3.78 -40.43,-11.34 -13.08,-7.56 -26.34,-19.37 -39.78,-35.44 l -1.95,0 c 6.93,23.42 12.39,43.89 16.36,61.39 3.98,17.5 9.65,42.73 17.02,75.7 l -36.42,0 -71.54,-317.91 27.1,0 15.17,34.73 2.17,0 c 5.35,-11.98 13.33,-21.45 23.96,-28.4 10.62,-6.94 22.94,-10.418 36.96,-10.418 22.25,0 42.24,6.778 59.94,20.328 z m 18.97,136.59 c 0,-22.89 -3.76,-44.51 -11.27,-64.87 -7.52,-20.37 -17.45,-36.06 -29.81,-47.1 -12.36,-11.03 -25.69,-16.55 -40,-16.55 -15.17,0 -26.77,3.99 -34.79,11.96 -8.02,7.96 -12.04,19.44 -12.04,34.42 0,20.57 4.23,40.66 12.69,60.27 8.45,19.62 19.87,35.89 34.25,48.83 14.38,12.94 28.51,19.41 42.38,19.41 25.73,0 38.59,-15.46 38.59,-46.37 l 0,0 z m 145.05,71.1 -36.42,0 -50.73,-223.93 36.42,0 50.73,223.93 z m -20.6,43 c 3.76,-3.34 8.53,-5 14.31,-5 6.36,0 11.96,2.58 16.8,7.76 4.84,5.18 7.26,11.51 7.26,19 0,12.26 -6.36,18.39 -19.07,18.39 -7.37,0 -13.37,-2.42 -18,-7.25 -4.62,-4.84 -6.93,-11.07 -6.93,-18.7 0,-6.13 1.87,-10.86 5.63,-14.2 z m 178.64,-43 c -10.98,2.72 -22.11,4.08 -33.38,4.08 -26.89,0 -48.96,-8.45 -66.23,-25.33 -17.28,-16.89 -25.91,-38.55 -25.91,-64.97 0,-11.31 2.89,-21.22 8.67,-29.73 5.78,-8.52 13.23,-14.95 22.33,-19.31 -13.15,-5.86 -23.41,-12.16 -30.78,-18.9 -7.37,-6.74 -11.06,-14.81 -11.06,-24.21 0,-10.9 5.64,-19.14 16.91,-24.72 -23.27,-7.35 -40.11,-16.28 -50.51,-26.76 -10.41,-10.488 -15.61,-22.891 -15.61,-37.191 0,-18.25 7.95,-32.379 23.85,-42.387 15.89,-10.012 37.86,-15.024 65.9,-15.024 38.3,0 68,6.883 89.1,20.641 21.1,13.75 31.65,33.16 31.65,58.223 0,17.437 -5.89,30.648 -17.67,39.638 -11.78,8.99 -30.75,14.98 -56.9,17.98 l -25.37,2.86 c -9.1,1.09 -16.04,2.55 -20.81,4.39 -4.77,1.84 -7.15,5.55 -7.15,11.14 0,10.62 10.04,19.54 30.13,26.76 4.19,-1.09 10.26,-1.63 18.21,-1.63 28.18,0 50.69,7.73 67.53,23.19 16.83,15.45 25.26,36.19 25.26,62.21 0,13.08 -2.97,23.83 -8.89,32.28 l 45.74,4.9 5.42,21.87 -80.43,0 z M 3690.06,993.391 c 9.25,8.579 22.55,14.569 39.89,17.969 l 34.47,-3.26 c 18.79,-1.91 32.09,-5.32 39.89,-10.221 7.81,-4.899 11.71,-11.578 11.71,-20.02 0,-15.8 -7.41,-28.019 -22.22,-36.679 -14.82,-8.641 -35.38,-12.969 -61.68,-12.969 -18.5,0 -32.45,3.059 -41.84,9.187 -9.4,6.133 -14.09,14.442 -14.09,24.934 0,12.117 4.62,22.469 13.87,31.059 z m 53.44,179.889 c 4.7,9.87 11.28,17.57 19.73,23.09 8.45,5.51 18.32,8.27 29.59,8.27 11.85,0 20.96,-2.93 27.32,-8.78 6.36,-5.86 9.54,-14.37 9.54,-25.54 0,-11.72 -2.28,-22.58 -6.83,-32.59 -4.56,-10.01 -11.1,-17.88 -19.62,-23.6 -8.53,-5.72 -18.5,-8.58 -29.92,-8.58 -11.56,0 -20.59,3.03 -27.1,9.09 -6.5,6.06 -9.75,14.88 -9.75,26.46 0,11.58 2.34,22.3 7.04,32.18 z m 307.65,52.82 c -10.98,2.72 -22.11,4.08 -33.38,4.08 -26.88,0 -48.96,-8.45 -66.23,-25.33 -17.27,-16.89 -25.91,-38.55 -25.91,-64.97 0,-11.31 2.89,-21.22 8.67,-29.73 5.78,-8.52 13.23,-14.95 22.33,-19.31 -13.15,-5.86 -23.41,-12.16 -30.78,-18.9 -7.37,-6.74 -11.06,-14.81 -11.06,-24.21 0,-10.9 5.64,-19.14 16.91,-24.72 -23.27,-7.35 -40.1,-16.28 -50.51,-26.76 -10.41,-10.488 -15.61,-22.891 -15.61,-37.191 0,-18.25 7.95,-32.379 23.85,-42.387 15.9,-10.012 37.86,-15.024 65.9,-15.024 38.3,0 68,6.883 89.1,20.641 21.1,13.75 31.65,33.16 31.65,58.223 0,17.437 -5.89,30.648 -17.67,39.638 -11.78,8.99 -30.75,14.98 -56.9,17.98 l -25.37,2.86 c -9.1,1.09 -16.04,2.55 -20.81,4.39 -4.77,1.84 -7.15,5.55 -7.15,11.14 0,10.62 10.04,19.54 30.13,26.76 4.19,-1.09 10.26,-1.63 18.21,-1.63 28.18,0 50.69,7.73 67.53,23.19 16.84,15.45 25.26,36.19 25.26,62.21 0,13.08 -2.97,23.83 -8.89,32.28 l 45.74,4.9 5.42,21.87 -80.43,0 z M 3914.58,993.391 c 9.24,8.579 22.54,14.569 39.88,17.969 l 34.47,-3.26 c 18.79,-1.91 32.09,-5.32 39.89,-10.221 7.81,-4.899 11.71,-11.578 11.71,-20.02 0,-15.8 -7.41,-28.019 -22.22,-36.679 -14.82,-8.641 -35.37,-12.969 -61.68,-12.969 -18.5,0 -32.44,3.059 -41.84,9.187 -9.39,6.133 -14.09,14.442 -14.09,24.934 0,12.117 4.63,22.469 13.88,31.059 z m 53.43,179.889 c 4.7,9.87 11.28,17.57 19.73,23.09 8.46,5.51 18.32,8.27 29.59,8.27 11.85,0 20.96,-2.93 27.32,-8.78 6.36,-5.86 9.54,-14.37 9.54,-25.54 0,-11.72 -2.28,-22.58 -6.83,-32.59 -4.55,-10.01 -11.1,-17.88 -19.62,-23.6 -8.53,-5.72 -18.5,-8.58 -29.92,-8.58 -11.56,0 -20.59,3.03 -27.1,9.09 -6.5,6.06 -9.75,14.88 -9.75,26.46 0,11.58 2.35,22.3 7.04,32.18 z m 270.72,-171.62 c 10.41,2.38 22.4,6.57 35.99,12.56 l 0,29.83 c -14.31,-6.53 -26.27,-11.03 -35.88,-13.48 -9.61,-2.45 -18.97,-3.68 -28.08,-3.68 -18.64,0 -32.4,5.01 -41.29,15.02 -8.89,10.01 -13.34,23.94 -13.34,41.78 l 0.87,16.35 7.16,0 c 44.65,0 78.98,6.97 102.97,20.94 23.99,13.96 35.99,33.2 35.99,57.72 0,16.2 -5.57,28.83 -16.7,37.89 -11.13,9.06 -27.75,13.59 -49.86,13.59 -21.39,0 -40.97,-6.54 -58.75,-19.61 -17.77,-13.08 -32.05,-31.36 -42.81,-54.86 -10.77,-23.5 -16.15,-48.05 -16.15,-73.65 0,-26.29 7.58,-46.86 22.76,-61.71 15.17,-14.84 36.06,-22.268 62.65,-22.268 12.58,0 24.06,1.199 34.47,3.578 z m 20.49,192.15 c 5.27,-4.77 7.91,-10.76 7.91,-17.98 0,-15.39 -8.78,-27.14 -26.34,-35.24 -17.56,-8.1 -42.82,-12.16 -75.77,-12.16 l -2.6,0 c 6.94,22.75 16.94,40.53 30.03,53.33 13.07,12.8 27.06,19.2 41.94,19.2 11.28,0 19.55,-2.38 24.83,-7.15 z m 180.09,31.77 c -7.45,-3.06 -14.56,-7.42 -21.35,-13.07 -6.8,-5.66 -15.4,-14.95 -25.8,-27.89 l -2.17,0 4.77,41.48 -30.13,0 -50.73,-223.93 36.42,0 23.19,102.56 c 4.05,17.71 10.37,33.82 18.97,48.32 8.6,14.51 18.65,25.85 30.14,34.02 11.49,8.17 23.81,12.26 36.96,12.26 7.51,0 15.1,-0.89 22.76,-2.66 l 7.81,30.65 c -7.37,1.91 -16.05,2.86 -26.02,2.86 -9.1,0 -17.38,-1.53 -24.82,-4.6 z m 210.2,-15.22 c -17.85,-13.21 -32.02,-32.07 -42.49,-56.59 -10.48,-24.52 -15.72,-51.22 -15.72,-80.09 0,-23.84 5.74,-42.4 17.23,-55.68 11.49,-13.28 27.35,-19.918 47.59,-19.918 13.87,0 27.31,3.678 40.32,11.038 13.01,7.35 26.38,19.27 40.11,35.75 l 1.73,0 c -6.93,-23.97 -11.05,-39.02 -12.35,-45.151 l -21.9,-98.071 35.99,0 72.84,324.452 -27.1,0 -14.53,-35.15 -2.81,0 c -5.35,12.4 -13.19,22.03 -23.53,28.91 -10.33,6.88 -22.29,10.32 -35.87,10.32 -21.83,0 -41.66,-6.61 -59.51,-19.82 z m -20.92,-137.5 c 0,22.2 3.75,43.42 11.27,63.65 7.51,20.22 17.63,36.09 30.35,47.6 12.72,11.51 26.37,17.26 40.97,17.26 14.17,0 25.19,-4.15 33.06,-12.46 7.88,-8.31 11.82,-19.61 11.82,-33.91 0,-21.12 -4.37,-41.55 -13.12,-61.3 -8.74,-19.75 -20.2,-35.89 -34.36,-48.42 -14.16,-12.53 -27.89,-18.8 -41.19,-18.8 -25.87,0 -38.8,15.46 -38.8,46.38 l 0,0 z m 242.73,153.24 -31.65,-138.12 c -3.18,-14.98 -4.77,-26.7 -4.77,-35.14 0,-17.57 5.28,-31.09 15.83,-40.56 10.54,-9.46 25.07,-14.198 43.57,-14.198 13.73,0 27.03,3.338 39.89,10.018 12.86,6.67 26.37,18.52 40.54,35.55 l 2.6,0 -4.77,-41.48 30.14,0 50.07,223.93 -35.98,0 -21.68,-97.05 c -4.92,-21.53 -12.07,-39.91 -21.46,-55.17 -9.4,-15.25 -20.24,-26.97 -32.52,-35.14 -12.29,-8.17 -24.79,-12.26 -37.51,-12.26 -21.24,0 -31.86,9.74 -31.86,29.22 0,6.81 1.3,16.27 3.9,28.4 l 32.52,142 -36.86,0 z m 320.74,-224.44 c 10.41,2.38 22.4,6.57 35.99,12.56 l 0,29.83 c -14.31,-6.53 -26.27,-11.03 -35.88,-13.48 -9.62,-2.45 -18.97,-3.68 -28.08,-3.68 -18.64,0 -32.41,5.01 -41.29,15.02 -8.89,10.01 -13.34,23.94 -13.34,41.78 l 0.87,16.35 7.15,0 c 44.66,0 78.99,6.97 102.98,20.94 23.99,13.96 35.99,33.2 35.99,57.72 0,16.2 -5.57,28.83 -16.7,37.89 -11.13,9.06 -27.75,13.59 -49.86,13.59 -21.39,0 -40.97,-6.54 -58.75,-19.61 -17.77,-13.08 -32.05,-31.36 -42.81,-54.86 -10.77,-23.5 -16.15,-48.05 -16.15,-73.65 0,-26.29 7.58,-46.86 22.76,-61.71 15.17,-14.84 36.06,-22.268 62.65,-22.268 12.57,0 24.06,1.199 34.47,3.578 z m 20.49,192.15 c 5.27,-4.77 7.91,-10.76 7.91,-17.98 0,-15.39 -8.78,-27.14 -26.34,-35.24 -17.56,-8.1 -42.82,-12.16 -75.77,-12.16 l -2.6,0 c 6.94,22.75 16.94,40.53 30.03,53.33 13.07,12.8 27.06,19.2 41.94,19.2 11.28,0 19.55,-2.38 24.83,-7.15 z m 198.81,-105.32 c -3.32,6.74 -8.34,13.04 -15.06,18.9 -6.72,5.86 -17.82,12.87 -33.28,21.04 -16.04,8.59 -26.63,15.6 -31.76,21.05 -5.13,5.44 -7.69,11.98 -7.69,19.61 0,9.4 3.82,17.06 11.48,22.99 7.66,5.92 18.21,8.88 31.66,8.88 17.19,0 33.09,-2.93 47.69,-8.78 l 12.14,-5.11 11.71,27.99 c -22.98,10.08 -46.83,15.12 -71.54,15.12 -23.85,0 -43.07,-5.75 -57.67,-17.26 -14.6,-11.51 -21.9,-26.67 -21.9,-45.46 0,-13.08 3.91,-24.39 11.71,-33.92 7.81,-9.53 21.1,-19.27 39.89,-29.21 16.76,-9.27 27.67,-16.55 32.74,-21.87 5.05,-5.31 7.58,-11.85 7.58,-19.61 0,-10.62 -4.62,-19.34 -13.87,-26.15 -9.25,-6.81 -22.98,-10.22 -41.19,-10.22 -9.97,0 -20.81,1.57 -32.52,4.7 -11.71,3.13 -22.62,7.56 -32.73,13.28 l 0,-32.28 c 19.65,-9.4 41.69,-14.098 66.12,-14.098 29.05,0 51.55,5.958 67.53,17.878 15.96,11.92 23.95,28.5 23.95,49.75 0,8.44 -1.66,16.04 -4.99,22.78 z m 97.1,-56.29 c -4.2,4.09 -6.29,9.95 -6.29,17.58 0,6.12 1.3,15.11 3.9,26.96 l 27.97,123.41 59.18,0 5.64,25.95 -59.4,0 11.92,51.48 -21.24,0 -27.1,-46.58 -40.11,-15.94 -3.03,-14.91 37.28,0 -27.53,-123 c -2.6,-11.44 -3.9,-21.65 -3.9,-30.64 0,-16.08 4.8,-28.17 14.42,-36.27 9.61,-8.1 23.44,-12.158 41.51,-12.158 4.34,0 10.12,0.688 17.34,2.048 7.23,1.36 13.3,2.99 18.21,4.9 l 0,26.36 c -12.86,-3.55 -23.27,-5.31 -31.21,-5.31 -7.52,0 -13.37,2.04 -17.56,6.12 z m 164.09,193.9 -36.42,0 -50.73,-223.93 36.42,0 50.73,223.93 z m -20.59,43 c 3.75,-3.34 8.52,-5 14.3,-5 6.36,0 11.96,2.58 16.81,7.76 4.84,5.18 7.26,11.51 7.26,19 0,12.26 -6.36,18.39 -19.08,18.39 -7.37,0 -13.37,-2.42 -17.99,-7.25 -4.63,-4.84 -6.94,-11.07 -6.94,-18.7 0,-6.13 1.88,-10.86 5.64,-14.2 z m 98.29,-58.43 c -17.93,-12.19 -32.16,-29.7 -42.71,-52.51 -10.55,-22.81 -15.83,-47.16 -15.83,-73.04 0,-26.7 7.88,-47.74 23.63,-63.13 15.75,-15.39 37.51,-23.088 65.26,-23.088 22.4,0 42.49,6.198 60.26,18.588 17.78,12.4 31.87,29.97 42.28,52.72 10.4,22.74 15.61,46.92 15.61,72.53 0,26.83 -7.95,47.91 -23.85,63.23 -15.9,15.32 -37.58,22.99 -65.04,22.99 -21.82,0 -41.69,-6.1 -59.61,-18.29 z m 100.69,-126.06 c -6.72,-18.32 -16.07,-32.45 -28.07,-42.39 -12,-9.95 -25.51,-14.92 -40.54,-14.92 -17.2,0 -30.39,4.87 -39.56,14.61 -9.18,9.74 -13.77,23.53 -13.77,41.37 0,21.93 3.43,41.85 10.3,59.76 6.86,17.91 16.55,31.91 29.05,41.99 12.5,10.08 26.63,15.12 42.38,15.12 15.46,0 27.71,-4.87 36.75,-14.61 9.03,-9.74 13.55,-22.44 13.55,-38.1 0,-23.57 -3.36,-44.51 -10.09,-62.83 z m 248.73,-82.44 31,137.3 c 3.32,13.75 4.98,26.01 4.98,36.77 0,17.03 -5.31,30.27 -15.93,39.74 -10.62,9.47 -25.11,14.2 -43.47,14.2 -13.87,0 -27.28,-3.44 -40.21,-10.32 -12.94,-6.88 -26.34,-18.62 -40.21,-35.24 l -2.17,0 4.77,41.48 -30.14,0 -50.73,-223.93 36.42,0 21.9,97.05 c 4.77,21.52 11.82,39.84 21.14,54.96 9.32,15.12 20.08,26.76 32.3,34.93 12.21,8.18 24.75,12.26 37.61,12.26 11.27,0 19.48,-2.59 24.61,-7.76 5.13,-5.18 7.69,-12.05 7.69,-20.64 0,-5.44 -1.44,-15.25 -4.33,-29.42 l -32.09,-141.38 36.86,0 z m 201.49,86.32 c -3.32,6.74 -8.34,13.04 -15.06,18.9 -6.72,5.86 -17.82,12.87 -33.28,21.04 -16.04,8.59 -26.63,15.6 -31.76,21.05 -5.13,5.44 -7.7,11.98 -7.7,19.61 0,9.4 3.83,17.06 11.49,22.99 7.66,5.92 18.21,8.88 31.65,8.88 17.2,0 33.1,-2.93 47.7,-8.78 l 12.14,-5.11 11.7,27.99 c -22.97,10.08 -46.82,15.12 -71.54,15.12 -23.84,0 -43.06,-5.75 -57.66,-17.26 -14.6,-11.51 -21.9,-26.67 -21.9,-45.46 0,-13.08 3.91,-24.39 11.71,-33.92 7.8,-9.53 21.1,-19.27 39.89,-29.21 16.76,-9.27 27.67,-16.55 32.73,-21.87 5.06,-5.31 7.59,-11.85 7.59,-19.61 0,-10.62 -4.63,-19.34 -13.87,-26.15 -9.25,-6.81 -22.98,-10.22 -41.19,-10.22 -9.97,0 -20.81,1.57 -32.52,4.7 -11.71,3.13 -22.62,7.56 -32.74,13.28 l 0,-32.28 c 19.66,-9.4 41.7,-14.098 66.12,-14.098 29.05,0 51.56,5.958 67.53,17.878 15.97,11.92 23.96,28.5 23.96,49.75 0,8.44 -1.66,16.04 -4.99,22.78" /></g></g></svg>